<svg width="444" height="76" viewBox="0 0 444 76" fill="none" xmlns="http://www.w3.org/2000/svg">
<path fill-rule="evenodd" clip-rule="evenodd" d="M422.449 10.8693C422.797 11.092 423.296 11.2033 423.945 11.2033C424.526 11.2033 425.063 11.0629 425.557 10.7821C426.051 10.4916 426.448 10.0704 426.748 9.51848C427.048 8.96654 427.198 8.2984 427.198 7.51407V7.28167C427.198 6.49734 427.048 5.8292 426.748 5.27726C426.448 4.72533 426.051 4.30895 425.557 4.02814C425.063 3.73764 424.526 3.5924 423.945 3.5924C423.509 3.5924 423.141 3.64565 422.841 3.75217C422.55 3.849 422.313 3.97488 422.129 4.12981C421.955 4.28474 421.814 4.44936 421.708 4.62365H421.446V0.832703H419.616V11H421.417V10.1285H421.679C421.843 10.3996 422.1 10.6466 422.449 10.8693ZM424.802 9.06821C424.424 9.42649 423.954 9.60563 423.393 9.60563C422.831 9.60563 422.361 9.42649 421.984 9.06821C421.606 8.70025 421.417 8.16768 421.417 7.47049V7.32525C421.417 6.62806 421.606 6.10033 421.984 5.74205C422.361 5.3741 422.831 5.19012 423.393 5.19012C423.964 5.19012 424.434 5.3741 424.802 5.74205C425.179 6.10033 425.368 6.62806 425.368 7.32525V7.47049C425.368 8.16768 425.179 8.70025 424.802 9.06821ZM429.663 12.3072V13.9049H434.195C434.679 13.9049 435.066 13.7549 435.357 13.4547C435.647 13.1642 435.792 12.772 435.792 12.2782V3.79574H433.962V7.45597C433.962 8.12411 433.807 8.647 433.497 9.02464C433.188 9.3926 432.752 9.57658 432.19 9.57658C431.696 9.57658 431.314 9.44101 431.043 9.16989C430.781 8.89876 430.651 8.49207 430.651 7.94981V3.79574H428.82V8.09506C428.82 8.68573 428.937 9.20862 429.169 9.66373C429.401 10.1188 429.726 10.4771 430.142 10.7386C430.568 10.9903 431.062 11.1162 431.624 11.1162C432.059 11.1162 432.418 11.0629 432.699 10.9564C432.979 10.8499 433.202 10.7143 433.367 10.5497C433.531 10.3851 433.652 10.2205 433.73 10.0559H433.991V11.8715C433.991 12.162 433.856 12.3072 433.585 12.3072H429.663ZM419.558 27V16.8327H423.741C424.38 16.8327 424.942 16.9634 425.426 17.2249C425.92 17.4766 426.302 17.8349 426.574 18.2997C426.854 18.7645 426.995 19.3164 426.995 19.9555V20.1589C426.995 20.7883 426.85 21.3402 426.559 21.8147C426.278 22.2795 425.891 22.6426 425.397 22.904C424.913 23.1558 424.361 23.2817 423.741 23.2817H421.475V27H419.558ZM421.475 21.5387H423.552C424.008 21.5387 424.375 21.4128 424.656 21.1611C424.937 20.9093 425.077 20.5656 425.077 20.1298V19.9846C425.077 19.5488 424.937 19.2051 424.656 18.9533C424.375 18.7015 424.008 18.5757 423.552 18.5757H421.475V21.5387ZM428.382 16.8327V27H430.212V23.3398C430.212 22.6716 430.367 22.1536 430.677 21.7856C430.987 21.408 431.423 21.2192 431.984 21.2192C432.478 21.2192 432.856 21.3547 433.117 21.6259C433.388 21.897 433.524 22.3037 433.524 22.8459V27H435.354V22.7007C435.354 22.1003 435.238 21.5774 435.005 21.132C434.773 20.6769 434.444 20.3235 434.018 20.0717C433.601 19.8103 433.112 19.6795 432.551 19.6795C432.125 19.6795 431.771 19.7328 431.49 19.8393C431.219 19.9361 431.001 20.062 430.837 20.217C430.672 20.3719 430.551 20.5268 430.474 20.6818H430.212V16.8327H428.382ZM437.332 27V19.7957H439.162V27H437.332ZM438.247 18.9533C437.918 18.9533 437.637 18.8468 437.405 18.6338C437.182 18.4207 437.071 18.1399 437.071 17.7913C437.071 17.4427 437.182 17.1619 437.405 16.9489C437.637 16.7359 437.918 16.6294 438.247 16.6294C438.586 16.6294 438.867 16.7359 439.09 16.9489C439.313 17.1619 439.424 17.4427 439.424 17.7913C439.424 18.1399 439.313 18.4207 439.09 18.6338C438.867 18.8468 438.586 18.9533 438.247 18.9533ZM441.19 16.8327V27H443.021V16.8327H441.19ZM201.439 61.1525C204.047 62.3259 207.002 62.9126 210.305 62.9126C213.608 62.9126 216.476 62.3694 218.91 61.2829C221.387 60.153 223.299 58.5884 224.647 56.5893C225.994 54.5902 226.667 52.2434 226.667 49.5489C226.667 46.8545 226.037 44.6815 224.777 43.0301C223.517 41.3352 221.822 40.0096 219.692 39.0535C217.606 38.054 215.238 37.2717 212.587 36.7067L209.197 35.8593C207.198 35.3812 205.481 34.838 204.047 34.2296C202.613 33.5777 201.505 32.752 200.722 31.7524C199.94 30.7528 199.549 29.4491 199.549 27.8411C199.549 25.4074 200.462 23.5386 202.287 22.2348C204.112 20.8876 206.524 20.214 209.523 20.214C211.609 20.214 213.456 20.5399 215.064 21.1918C216.715 21.8437 217.997 22.8433 218.91 24.1905C219.866 25.5377 220.344 27.3196 220.344 29.536V32.2739H225.755V29.536C225.755 26.4069 225.038 23.8211 223.604 21.7785C222.213 19.6925 220.279 18.1279 217.802 17.0849C215.368 15.9984 212.608 15.4552 209.523 15.4552C206.481 15.4552 203.786 15.955 201.439 16.9545C199.136 17.9541 197.332 19.3883 196.029 21.257C194.768 23.1257 194.138 25.3422 194.138 27.9063C194.138 30.4704 194.703 32.5781 195.833 34.2296C197.007 35.8376 198.615 37.1413 200.657 38.1409C202.7 39.1405 205.046 39.9879 207.698 40.6833L211.087 41.5307C213.13 42.0088 214.912 42.5737 216.433 43.2256C217.954 43.8341 219.127 44.638 219.953 45.6376C220.822 46.6372 221.257 47.9844 221.257 49.6793C221.257 52.113 220.322 54.1339 218.454 55.7419C216.585 57.3499 213.869 58.1539 210.305 58.1539C206.828 58.1539 203.982 57.2412 201.765 55.4159C199.549 53.5472 198.441 50.7223 198.441 46.9414V45.5724H193.03V46.9414C193.03 50.505 193.769 53.482 195.246 55.8723C196.768 58.2191 198.832 59.9791 201.439 61.1525ZM0.534668 16.3678V62H5.68458V45.9636C5.68458 42.0088 6.64068 39.0318 8.55289 37.0327C10.5086 35.0336 13.0292 34.034 16.1148 34.034C18.8093 34.034 20.9388 34.7511 22.5033 36.1852C24.1113 37.6194 24.9153 39.9227 24.9153 43.0952V62H30.0652V42.7041C30.0652 39.8358 29.5002 37.4456 28.3703 35.5333C27.2403 33.5777 25.7193 32.1001 23.8071 31.1005C21.9383 30.0575 19.8088 29.536 17.4186 29.536C15.2456 29.536 13.442 29.8185 12.0079 30.3834C10.6172 30.9484 9.46553 31.6655 8.55289 32.5347C7.6837 33.3604 7.03182 34.2513 6.59723 35.2074H5.68458V16.3678H0.534668ZM42.9257 61.7392C44.751 62.5215 46.7719 62.9126 48.9883 62.9126C51.2047 62.9126 53.0082 62.6084 54.3989 62C55.7896 61.435 56.8761 60.718 57.6584 59.8488C58.4841 58.9361 59.136 58.0669 59.614 57.2412H60.3963V57.5672C60.3963 58.9144 60.8309 60.0009 61.7001 60.8266C62.5693 61.6089 63.7209 62 65.1551 62H69.6531V57.6323H66.7196C65.5028 57.6323 64.8943 56.9805 64.8943 55.6767V41.27C64.8943 37.4456 63.7644 34.4903 61.5045 32.4043C59.2446 30.2748 56.0721 29.21 51.987 29.21C49.3359 29.21 47.0543 29.6664 45.1421 30.579C43.2734 31.4482 41.774 32.6216 40.6441 34.0992C39.5142 35.5333 38.6884 37.1413 38.1669 38.9232L42.9909 40.4877C43.5124 38.4017 44.4902 36.7502 45.9244 35.5333C47.3586 34.273 49.3577 33.6429 51.9218 33.6429C54.5293 33.6429 56.485 34.2948 57.7888 35.5985C59.136 36.9023 59.8096 38.6841 59.8096 40.944V43.2908H49.0535C46.7936 43.2908 44.751 43.6602 42.9257 44.399C41.1004 45.0944 39.6663 46.1591 38.6233 47.5933C37.5802 48.984 37.0587 50.7658 37.0587 52.9388C37.0587 55.0683 37.5802 56.8718 38.6233 58.3494C39.6663 59.827 41.1004 60.957 42.9257 61.7392ZM56.9413 55.8071C55.0726 57.5889 52.6171 58.4798 49.575 58.4798C47.402 58.4798 45.6202 57.98 44.2295 56.9805C42.8823 55.9809 42.2086 54.5902 42.2086 52.8084C42.2086 51.0266 42.8605 49.701 44.1643 48.8319C45.5115 47.9192 47.2064 47.4629 49.249 47.4629H59.8096V48.18C59.8096 51.4394 58.8535 53.9818 56.9413 55.8071ZM75.4025 75.0378V30.1227H80.422V35.403H81.3346C82.1604 33.795 83.4859 32.3608 85.3112 31.1005C87.1799 29.8402 89.7657 29.21 93.0686 29.21C95.8066 29.21 98.3055 29.8837 100.565 31.2309C102.869 32.5347 104.694 34.4034 106.041 36.8371C107.432 39.2708 108.127 42.2043 108.127 45.6376V46.4851C108.127 49.8749 107.454 52.8084 106.106 55.2856C104.759 57.7627 102.934 59.6532 100.631 60.957C98.3707 62.2608 95.85 62.9126 93.0686 62.9126C90.8522 62.9126 88.9617 62.6084 87.3972 62C85.8761 61.435 84.6375 60.6962 83.6814 59.7836C82.7253 58.8709 81.9865 57.9366 81.465 56.9805H80.5524V75.0378H75.4025ZM91.6997 58.3494C95.0026 58.3494 97.6753 57.3064 99.7179 55.2204C101.804 53.0909 102.847 50.1356 102.847 46.3547V45.768C102.847 41.987 101.804 39.0535 99.7179 36.9675C97.6753 34.838 95.0026 33.7732 91.6997 33.7732C88.4402 33.7732 85.7458 34.838 83.6163 36.9675C81.5302 39.0535 80.4872 41.987 80.4872 45.768V46.3547C80.4872 50.1356 81.5302 53.0909 83.6163 55.2204C85.7458 57.3064 88.4402 58.3494 91.6997 58.3494ZM116.051 30.1227V75.0378H121.201V56.9805H122.114C122.635 57.9366 123.374 58.8709 124.33 59.7836C125.286 60.6962 126.525 61.435 128.046 62C129.611 62.6084 131.501 62.9126 133.717 62.9126C136.499 62.9126 139.019 62.2608 141.279 60.957C143.583 59.6532 145.408 57.7627 146.755 55.2856C148.102 52.8084 148.776 49.8749 148.776 46.4851V45.6376C148.776 42.2043 148.081 39.2708 146.69 36.8371C145.343 34.4034 143.517 32.5347 141.214 31.2309C138.954 29.8837 136.455 29.21 133.717 29.21C130.414 29.21 127.829 29.8402 125.96 31.1005C124.135 32.3608 122.809 33.795 121.983 35.403H121.071V30.1227H116.051ZM140.367 55.2204C138.324 57.3064 135.651 58.3494 132.348 58.3494C129.089 58.3494 126.395 57.3064 124.265 55.2204C122.179 53.0909 121.136 50.1356 121.136 46.3547V45.768C121.136 41.987 122.179 39.0535 124.265 36.9675C126.395 34.838 129.089 33.7732 132.348 33.7732C135.651 33.7732 138.324 34.838 140.367 36.9675C142.453 39.0535 143.496 41.987 143.496 45.768V46.3547C143.496 50.1356 142.453 53.0909 140.367 55.2204ZM160.546 75.0378V70.4745H178.799C180.059 70.4745 180.689 69.8227 180.689 68.5189V56.9153H179.777C179.342 57.8279 178.669 58.7406 177.756 59.6532C176.887 60.5224 175.735 61.2395 174.301 61.8044C172.867 62.3259 171.063 62.5867 168.89 62.5867C166.587 62.5867 164.457 62.0869 162.502 61.0874C160.59 60.0878 159.069 58.6102 157.939 56.6545C156.852 54.6989 156.309 52.3086 156.309 49.4837V30.1227H161.459V49.0926C161.459 52.2217 162.241 54.5033 163.806 55.9374C165.414 57.3716 167.565 58.0887 170.259 58.0887C173.301 58.0887 175.8 57.0891 177.756 55.09C179.712 53.0909 180.689 50.1139 180.689 46.1591V30.1227H185.839V69.4315C185.839 71.1699 185.34 72.5389 184.34 73.5384C183.384 74.538 181.972 75.0378 180.103 75.0378H160.546ZM233.987 75.0378V30.1227H239.006V35.403H239.919C240.745 33.795 242.07 32.3608 243.896 31.1005C245.764 29.8402 248.35 29.21 251.653 29.21C254.391 29.21 256.89 29.8837 259.15 31.2309C261.453 32.5347 263.278 34.4034 264.626 36.8371C266.016 39.2708 266.712 42.2043 266.712 45.6376V46.4851C266.712 49.8749 266.038 52.8084 264.691 55.2856C263.344 57.7627 261.518 59.6532 259.215 60.957C256.955 62.2608 254.434 62.9126 251.653 62.9126C249.437 62.9126 247.546 62.6084 245.982 62C244.461 61.435 243.222 60.6962 242.266 59.7836C241.31 58.8709 240.571 57.9366 240.049 56.9805H239.137V75.0378H233.987ZM250.284 58.3494C253.587 58.3494 256.26 57.3064 258.302 55.2204C260.388 53.0909 261.431 50.1356 261.431 46.3547V45.768C261.431 41.987 260.388 39.0535 258.302 36.9675C256.26 34.838 253.587 33.7732 250.284 33.7732C247.025 33.7732 244.33 34.838 242.201 36.9675C240.115 39.0535 239.072 41.987 239.072 45.768V46.3547C239.072 50.1356 240.115 53.0909 242.201 55.2204C244.33 57.3064 247.025 58.3494 250.284 58.3494ZM274.636 30.1227V62H279.786V30.1227H274.636ZM274.375 24.0601C275.157 24.7989 276.113 25.1683 277.243 25.1683C278.373 25.1683 279.308 24.7989 280.046 24.0601C280.785 23.3213 281.155 22.3869 281.155 21.257C281.155 20.0836 280.785 19.1275 280.046 18.3887C279.308 17.6499 278.373 17.2805 277.243 17.2805C276.113 17.2805 275.157 17.6499 274.375 18.3887C273.636 19.1275 273.267 20.0836 273.267 21.257C273.267 22.3869 273.636 23.3213 274.375 24.0601ZM302.805 62.9126C300.067 62.9126 297.546 62.2608 295.243 60.957C292.94 59.6532 291.114 57.7627 289.767 55.2856C288.42 52.8084 287.746 49.8749 287.746 46.4851V45.6376C287.746 42.2478 288.42 39.336 289.767 36.9023C291.114 34.4251 292.918 32.5347 295.178 31.2309C297.481 29.8837 300.023 29.21 302.805 29.21C305.021 29.21 306.89 29.5142 308.411 30.1227C309.976 30.6876 311.236 31.4265 312.192 32.3391C313.148 33.2083 313.887 34.1427 314.409 35.1422H315.321V16.3678H320.471V62H315.452V56.7197H314.539C313.67 58.3277 312.322 59.7618 310.497 61.0222C308.672 62.2825 306.108 62.9126 302.805 62.9126ZM304.174 58.3494C307.477 58.3494 310.15 57.3064 312.192 55.2204C314.278 53.0909 315.321 50.1356 315.321 46.3547V45.768C315.321 41.987 314.278 39.0535 312.192 36.9675C310.15 34.838 307.477 33.7732 304.174 33.7732C300.914 33.7732 298.22 34.838 296.09 36.9675C294.004 39.0535 292.961 41.987 292.961 45.768V46.3547C292.961 50.1356 294.004 53.0909 296.09 55.2204C298.22 57.3064 300.914 58.3494 304.174 58.3494ZM336.087 60.8918C338.521 62.239 341.346 62.9126 344.562 62.9126C347.43 62.9126 349.777 62.4563 351.602 61.5437C353.471 60.631 354.97 59.5011 356.1 58.1539C357.274 56.8066 358.186 55.4594 358.838 54.1122L354.405 51.9609C353.623 53.6993 352.493 55.1986 351.016 56.459C349.538 57.7193 347.43 58.3494 344.692 58.3494C341.563 58.3494 338.956 57.3933 336.87 55.4811C334.784 53.5255 333.675 50.831 333.545 47.3977H359.555V45.0509C359.555 41.8349 358.903 39.0318 357.6 36.6416C356.296 34.2513 354.492 32.426 352.189 31.1657C349.886 29.8619 347.235 29.21 344.236 29.21C341.15 29.21 338.412 29.9054 336.022 31.2961C333.632 32.6433 331.763 34.5555 330.416 37.0327C329.069 39.5099 328.395 42.3999 328.395 45.7028V46.4851C328.395 49.7445 329.069 52.6128 330.416 55.09C331.763 57.5672 333.654 59.5011 336.087 60.8918ZM354.34 43.1604H333.61C334.045 40.2052 335.196 37.9019 337.065 36.2504C338.934 34.599 341.324 33.7732 344.236 33.7732C347.104 33.7732 349.451 34.599 351.276 36.2504C353.145 37.9019 354.166 40.2052 354.34 43.1604ZM367.234 62V30.1227H372.254V34.034H373.167C373.732 32.6433 374.601 31.622 375.774 30.9701C376.947 30.3182 378.49 29.9923 380.402 29.9923H384.183V34.6859H380.077C377.773 34.6859 375.904 35.3378 374.47 36.6416C373.08 37.9019 372.384 39.8793 372.384 42.5737V62H367.234ZM392.67 60.1747C395.408 62 398.754 62.9126 402.709 62.9126C406.621 62.9126 409.728 62.0652 412.031 60.3703C414.378 58.6754 415.551 56.2634 415.551 53.1343C415.551 51.0917 415.008 49.4403 413.922 48.18C412.879 46.9197 411.445 45.9636 409.619 45.3117C407.837 44.6163 405.817 44.0731 403.557 43.6819L400.884 43.2256C398.885 42.878 397.277 42.3564 396.06 41.6611C394.887 40.9223 394.3 39.7923 394.3 38.2713C394.3 36.7067 394.93 35.5333 396.19 34.7511C397.451 33.9254 399.167 33.5125 401.34 33.5125C403.513 33.5125 405.339 33.9905 406.816 34.9466C408.294 35.8593 409.228 37.4673 409.619 39.7706L414.443 38.532C413.791 35.5768 412.335 33.2952 410.076 31.6872C407.859 30.0358 404.947 29.21 401.34 29.21C397.69 29.21 394.756 30.014 392.54 31.622C390.323 33.23 389.215 35.4682 389.215 38.3365C389.215 40.2487 389.715 41.8349 390.715 43.0952C391.714 44.3556 393.061 45.3551 394.756 46.0939C396.451 46.8327 398.32 47.376 400.362 47.7237L403.035 48.18C405.339 48.6146 407.142 49.1795 408.446 49.8749C409.793 50.5268 410.467 51.6784 410.467 53.3299C410.467 54.9379 409.771 56.2199 408.381 57.176C406.99 58.1321 405.1 58.6102 402.709 58.6102C401.101 58.6102 399.58 58.3712 398.146 57.8931C396.755 57.3716 395.582 56.5241 394.626 55.3507C393.67 54.1339 393.018 52.4824 392.67 50.3964L387.781 51.5046C388.346 55.4594 389.976 58.3494 392.67 60.1747Z" fill="#161616"/>
</svg>
